#Comment line ignore any data following # character 
#Hierarchical Translation and Rotation (.htr) file 
[Header]	
#Header keywords are followed by a single value 
FileType HTR		#Single word string
DataType HTRS		#Translation followed by rotation and scale data
FileVersion 1		#integer
NumSegments 84		#integer
NumFrames 2		#integer
DataFrameRate 30		#integer, data frame rate in this file
EulerRotationOrder ZYX
CalibrationUnits mm
RotationUnits Degrees
GlobalAxisofGravity Y
BoneLengthAxis Y
ScaleFactor 1.00
[SegmentNames&Hierarchy]
#CHILD	PARENT
MASTER GLOBAL
root MASTER
chest root
L_mid_tent01 root
R_mid_tent01 root
spine01 root
Bip01_Neck chest
L_humerus chest
R_humerus chest
weapon_bone chest
Bip01_Head Bip01_Neck
eye_left_bone Bip01_Head
eye_right_bone Bip01_Head
L_forearm L_humerus
L_front_hand L_forearm
L_weapon_bone L_forearm
L_front_hand01_01 L_front_hand
L_front_hand02_01 L_front_hand
L_front_hand03_01 L_front_hand
L_front_hand01_02 L_front_hand01_01
L_front_hand02_02 L_front_hand02_01
L_front_hand03_02 L_front_hand03_01
R_forearm R_humerus
R_front_hand R_forearm
R_weapon_bone R_forearm
R_front_hand01_01 R_front_hand
R_front_hand02_01 R_front_hand
R_front_hand03_01 R_front_hand
R_front_hand01_02 R_front_hand01_01
R_front_hand02_02 R_front_hand02_01
R_front_hand03_02 R_front_hand03_01
null_rope01_connect L_mid_tent01
Rope1_Seg01 null_rope01_connect
Rope1_Seg02 Rope1_Seg01
Rope1_Seg03 Rope1_Seg02
Rope1_Seg04 Rope1_Seg03
Rope1_Seg05 Rope1_Seg04
Rope1_Seg06 Rope1_Seg05
Rope1_Seg07 Rope1_Seg06
Rope1_Seg09 Rope1_Seg07
L_mid_hand01 Rope1_Seg09
L_mid_hand02 Rope1_Seg09
L_mid_hand03 Rope1_Seg09
null_rope02_connect R_mid_tent01
Rope2_Seg01 null_rope02_connect
Rope2_Seg02 Rope2_Seg01
Rope2_Seg03 Rope2_Seg02
Rope2_Seg04 Rope2_Seg03
Rope2_Seg05 Rope2_Seg04
Rope2_Seg06 Rope2_Seg05
Rope2_Seg07 Rope2_Seg06
Rope2_Seg09 Rope2_Seg07
R_mid_hand01 Rope2_Seg09
R_mid_hand02 Rope2_Seg09
R_mid_hand03 Rope2_Seg09
spine02 spine01
spine03 spine02
pelvis spine03
null_rope03_connect pelvis
null_rope04_connect pelvis
Rope3_Seg01 null_rope03_connect
Rope3_Seg02 Rope3_Seg01
Rope3_Seg03 Rope3_Seg02
Rope3_Seg04 Rope3_Seg03
Rope3_Seg05 Rope3_Seg04
Rope3_Seg06 Rope3_Seg05
Rope3_Seg07 Rope3_Seg06
Rope3_Seg08 Rope3_Seg07
Rope3_Seg09 Rope3_Seg08
R_rear_hand01 Rope3_Seg09
R_rear_hand02 Rope3_Seg09
R_rear_hand03 Rope3_Seg09
Rope4_Seg01 null_rope04_connect
Rope4_Seg02 Rope4_Seg01
Rope4_Seg03 Rope4_Seg02
Rope4_Seg04 Rope4_Seg03
Rope4_Seg05 Rope4_Seg04
Rope4_Seg06 Rope4_Seg05
Rope4_Seg07 Rope4_Seg06
Rope4_Seg08 Rope4_Seg07
Rope4_Seg09 Rope4_Seg08
L_rear_hand01 Rope4_Seg09
L_rear_hand02 Rope4_Seg09
L_rear_hand03 Rope4_Seg09
[BasePosition]
#SegmentName Tx, Ty, Tz, Rx, Ry, Rz, BoneLength
MASTER 0.000000 0.000000 0.000000 -90.000000 0.000000 0.000000 10.000000 
root 0.000000 0.000000 0.000000 0.000000 0.000000 0.000000 10.000000 
chest 0.000000 0.000000 0.000000 0.000000 0.000000 0.000000 10.000000 
L_mid_tent01 0.000000 0.000000 0.000000 0.000000 0.000000 0.000000 10.000000 
R_mid_tent01 0.000000 0.000000 0.000000 0.000000 0.000000 0.000000 10.000000 
spine01 0.000000 0.000000 0.000000 0.000000 0.000000 0.000000 10.000000 
Bip01_Neck 0.000000 0.000000 0.000000 0.000000 0.000000 0.000000 10.000000 
L_humerus 0.000000 0.000000 0.000000 0.000000 0.000000 0.000000 10.000000 
R_humerus 0.000000 0.000000 0.000000 0.000000 0.000000 0.000000 10.000000 
weapon_bone 0.000000 0.000000 0.000000 0.000000 0.000000 0.000000 10.000000 
Bip01_Head 0.000000 0.000000 0.000000 0.000000 0.000000 0.000000 10.000000 
eye_left_bone 0.000000 0.000000 0.000000 0.000000 0.000000 0.000000 10.000000 
eye_right_bone 0.000000 0.000000 0.000000 0.000000 0.000000 0.000000 10.000000 
L_forearm 0.000000 0.000000 0.000000 0.000000 0.000000 0.000000 10.000000 
L_front_hand 0.000000 0.000000 0.000000 0.000000 0.000000 0.000000 10.000000 
L_weapon_bone 0.000000 0.000000 0.000000 0.000000 0.000000 0.000000 10.000000 
L_front_hand01_01 0.000000 0.000000 0.000000 0.000000 0.000000 0.000000 10.000000 
L_front_hand02_01 0.000000 0.000000 0.000000 0.000000 0.000000 0.000000 10.000000 
L_front_hand03_01 0.000000 0.000000 0.000000 0.000000 0.000000 0.000000 10.000000 
L_front_hand01_02 0.000000 0.000000 0.000000 0.000000 0.000000 0.000000 10.000000 
L_front_hand02_02 0.000000 0.000000 0.000000 0.000000 0.000000 0.000000 10.000000 
L_front_hand03_02 0.000000 0.000000 0.000000 0.000000 0.000000 0.000000 10.000000 
R_forearm 0.000000 0.000000 0.000000 0.000000 0.000000 0.000000 10.000000 
R_front_hand 0.000000 0.000000 0.000000 0.000000 0.000000 0.000000 10.000000 
R_weapon_bone 0.000000 0.000000 0.000000 0.000000 0.000000 0.000000 10.000000 
R_front_hand01_01 0.000000 0.000000 0.000000 0.000000 0.000000 0.000000 10.000000 
R_front_hand02_01 0.000000 0.000000 0.000000 0.000000 0.000000 0.000000 10.000000 
R_front_hand03_01 0.000000 0.000000 0.000000 0.000000 0.000000 0.000000 10.000000 
R_front_hand01_02 0.000000 0.000000 0.000000 0.000000 0.000000 0.000000 10.000000 
R_front_hand02_02 0.000000 0.000000 0.000000 0.000000 0.000000 0.000000 10.000000 
R_front_hand03_02 0.000000 0.000000 0.000000 0.000000 0.000000 0.000000 10.000000 
null_rope01_connect 0.000000 0.000000 0.000000 0.000000 0.000000 0.000000 10.000000 
Rope1_Seg01 0.000000 0.000000 0.000000 0.000000 0.000000 0.000000 10.000000 
Rope1_Seg02 0.000000 0.000000 0.000000 0.000000 0.000000 0.000000 10.000000 
Rope1_Seg03 0.000000 0.000000 0.000000 0.000000 0.000000 0.000000 10.000000 
Rope1_Seg04 0.000000 0.000000 0.000000 0.000000 0.000000 0.000000 10.000000 
Rope1_Seg05 0.000000 0.000000 0.000000 0.000000 0.000000 0.000000 10.000000 
Rope1_Seg06 0.000000 0.000000 0.000000 0.000000 0.000000 0.000000 10.000000 
Rope1_Seg07 0.000000 0.000000 0.000000 0.000000 0.000000 0.000000 10.000000 
Rope1_Seg09 0.000000 0.000000 0.000000 0.000000 0.000000 0.000000 10.000000 
L_mid_hand01 0.000000 0.000000 0.000000 0.000000 0.000000 0.000000 10.000000 
L_mid_hand02 0.000000 0.000000 0.000000 0.000000 0.000000 0.000000 10.000000 
L_mid_hand03 0.000000 0.000000 0.000000 0.000000 0.000000 0.000000 10.000000 
null_rope02_connect 0.000000 0.000000 0.000000 0.000000 0.000000 0.000000 10.000000 
Rope2_Seg01 0.000000 0.000000 0.000000 0.000000 0.000000 0.000000 10.000000 
Rope2_Seg02 0.000000 0.000000 0.000000 0.000000 0.000000 0.000000 10.000000 
Rope2_Seg03 0.000000 0.000000 0.000000 0.000000 0.000000 0.000000 10.000000 
Rope2_Seg04 0.000000 0.000000 0.000000 0.000000 0.000000 0.000000 10.000000 
Rope2_Seg05 0.000000 0.000000 0.000000 0.000000 0.000000 0.000000 10.000000 
Rope2_Seg06 0.000000 0.000000 0.000000 0.000000 0.000000 0.000000 10.000000 
Rope2_Seg07 0.000000 0.000000 0.000000 0.000000 0.000000 0.000000 10.000000 
Rope2_Seg09 0.000000 0.000000 0.000000 0.000000 0.000000 0.000000 10.000000 
R_mid_hand01 0.000000 0.000000 0.000000 0.000000 0.000000 0.000000 10.000000 
R_mid_hand02 0.000000 0.000000 0.000000 0.000000 0.000000 0.000000 10.000000 
R_mid_hand03 0.000000 0.000000 0.000000 0.000000 0.000000 0.000000 10.000000 
spine02 0.000000 0.000000 0.000000 0.000000 0.000000 0.000000 10.000000 
spine03 0.000000 0.000000 0.000000 0.000000 0.000000 0.000000 10.000000 
pelvis 0.000000 0.000000 0.000000 0.000000 0.000000 0.000000 10.000000 
null_rope03_connect 0.000000 0.000000 0.000000 0.000000 0.000000 0.000000 10.000000 
null_rope04_connect 0.000000 0.000000 0.000000 0.000000 0.000000 0.000000 10.000000 
Rope3_Seg01 0.000000 0.000000 0.000000 0.000000 0.000000 0.000000 10.000000 
Rope3_Seg02 0.000000 0.000000 0.000000 0.000000 0.000000 0.000000 10.000000 
Rope3_Seg03 0.000000 0.000000 0.000000 0.000000 0.000000 0.000000 10.000000 
Rope3_Seg04 0.000000 0.000000 0.000000 0.000000 0.000000 0.000000 10.000000 
Rope3_Seg05 0.000000 0.000000 0.000000 0.000000 0.000000 0.000000 10.000000 
Rope3_Seg06 0.000000 0.000000 0.000000 0.000000 0.000000 0.000000 10.000000 
Rope3_Seg07 0.000000 0.000000 0.000000 0.000000 0.000000 0.000000 10.000000 
Rope3_Seg08 0.000000 0.000000 0.000000 0.000000 0.000000 0.000000 10.000000 
Rope3_Seg09 0.000000 0.000000 0.000000 0.000000 0.000000 0.000000 10.000000 
R_rear_hand01 0.000000 0.000000 0.000000 0.000000 0.000000 0.000000 10.000000 
R_rear_hand02 0.000000 0.000000 0.000000 0.000000 0.000000 0.000000 10.000000 
R_rear_hand03 0.000000 0.000000 0.000000 0.000000 0.000000 0.000000 10.000000 
Rope4_Seg01 0.000000 0.000000 0.000000 0.000000 0.000000 0.000000 10.000000 
Rope4_Seg02 0.000000 0.000000 0.000000 0.000000 0.000000 0.000000 10.000000 
Rope4_Seg03 0.000000 0.000000 0.000000 0.000000 0.000000 0.000000 10.000000 
Rope4_Seg04 0.000000 0.000000 0.000000 0.000000 0.000000 0.000000 10.000000 
Rope4_Seg05 0.000000 0.000000 0.000000 0.000000 0.000000 0.000000 10.000000 
Rope4_Seg06 0.000000 0.000000 0.000000 0.000000 0.000000 0.000000 10.000000 
Rope4_Seg07 0.000000 0.000000 0.000000 0.000000 0.000000 0.000000 10.000000 
Rope4_Seg08 0.000000 0.000000 0.000000 0.000000 0.000000 0.000000 10.000000 
Rope4_Seg09 0.000000 0.000000 0.000000 0.000000 0.000000 0.000000 10.000000 
L_rear_hand01 0.000000 0.000000 0.000000 0.000000 0.000000 0.000000 10.000000 
L_rear_hand02 0.000000 0.000000 0.000000 0.000000 0.000000 0.000000 10.000000 
L_rear_hand03 0.000000 0.000000 0.000000 0.000000 0.000000 0.000000 10.000000 
#Beginning of Data. Separated by tabs
#Fr	Tx	Ty	Tz	Rx	Ry	Rz	SF
[MASTER]
64 -321.523407 -2325.100586 0.505411 0.001660 0.001660 0.001660 2347.226318
65 -319.103333 -2377.888916 0.530930 0.001660 0.001660 0.001660 2399.204590
[root]
64 -16.502304 -62.822109 1457.717529 -94.717491 -29.862690 -89.765053 1459.163940
65 -16.502304 -62.821960 1465.700317 -95.170784 -30.509010 -89.611633 1467.138672
[chest]
64 -84.512650 -34.090519 0.000000 -2.536239 0.622776 171.244675 91.129311
65 -84.512650 -34.090519 0.000000 -2.481078 0.620878 171.307129 91.129311
[L_mid_tent01]
64 27.299490 22.177639 -249.918274 -1.379268 36.511192 66.497536 252.381165
65 27.299490 22.177641 -249.918274 -1.379268 36.511192 66.497536 252.381165
[R_mid_tent01]
64 23.228794 24.509907 226.238495 173.895706 -30.891880 58.389252 228.744751
65 23.228794 24.509907 226.238495 173.895706 -30.891880 58.389252 228.744751
[spine01]
64 -0.361383 -0.195265 0.000000 0.001845 0.001451 13.654368 0.410763
65 -0.361383 -0.195265 0.000000 0.001845 0.001451 13.654368 0.410763
[Bip01_Neck]
64 165.484543 71.581718 0.000119 176.643677 -1.657967 43.431911 180.302734
65 165.484543 71.581718 0.000119 176.643677 -1.657967 43.431911 180.302734
[L_humerus]
64 -13.983130 -135.272980 -120.471481 174.943527 44.898209 -93.768707 181.680161
65 -13.983130 -135.272980 -120.471481 173.588379 48.981689 -95.053825 181.680161
[R_humerus]
64 -13.983309 -135.273102 125.287651 -171.400772 -37.730064 -96.661987 184.909012
65 -13.983309 -135.273102 125.287651 -171.480942 -42.274094 -96.031151 184.909012
[weapon_bone]
64 235.964890 -300.705902 0.000000 0.000000 -89.951546 -128.212341 382.234833
65 235.964890 -300.705902 0.000000 0.000000 -89.951546 -128.212341 382.234833
[Bip01_Head]
64 213.444489 185.715607 11.776998 -9.402522 -5.810782 -41.339664 283.174042
65 213.444489 185.715607 11.776998 -7.142565 -4.457134 -42.001476 283.174042
[eye_left_bone]
64 -24.626970 125.451866 -64.772606 0.000000 -90.000000 -99.840431 143.318359
65 -24.626970 125.451866 -64.772606 0.000000 -90.000000 -99.840431 143.318359
[eye_right_bone]
64 -24.626970 125.451866 64.327362 0.000000 -89.965736 80.156380 143.117676
65 -24.626970 125.451866 64.327362 0.000000 -89.965736 80.156380 143.117676
[L_forearm]
64 322.776093 0.000000 -0.000119 0.000119 -0.002344 -95.807457 322.776093
65 322.776093 0.000000 -0.000119 0.000119 -0.002344 -95.807457 322.776093
[L_front_hand]
64 241.149185 -0.042021 -3.300071 149.893951 -1.837326 -27.423067 241.171753
65 241.149185 -0.042021 -3.300071 149.893951 -1.837326 -27.423067 241.171753
[L_weapon_bone]
64 156.183838 0.000000 0.000000 0.000014 0.000007 0.000001 156.183838
65 156.183838 0.000000 0.000000 0.000014 0.000007 0.000001 156.183838
[L_front_hand01_01]
64 86.095154 20.947098 -0.655860 -0.366594 -0.477154 75.385574 88.609184
65 86.095154 20.947098 -0.655860 -0.366594 -0.477154 75.385574 88.609184
[L_front_hand02_01]
64 86.935165 -11.437475 24.513514 154.399796 -59.883835 -61.369587 91.046425
65 86.935165 -11.437475 24.513514 154.399796 -59.883835 -61.369587 91.046425
[L_front_hand03_01]
64 86.637497 -14.123976 -20.424902 -153.913849 58.118122 -62.702866 90.126129
65 86.637497 -14.123976 -20.424902 -153.913849 58.118122 -62.702866 90.126129
[L_front_hand01_02]
64 71.020905 -0.000179 0.000030 0.000334 -0.002323 -106.379684 71.020905
65 71.020905 -0.000179 0.000030 0.000334 -0.002323 -106.379684 71.020905
[L_front_hand02_02]
64 71.020927 -0.000119 0.000060 0.000334 -0.002323 -106.379684 71.020927
65 71.020927 -0.000119 0.000060 0.000334 -0.002323 -106.379684 71.020927
[L_front_hand03_02]
64 71.020905 -0.000060 0.000060 0.000334 -0.002323 -106.379684 71.020905
65 71.020905 -0.000060 0.000060 0.000334 -0.002323 -106.379684 71.020905
[R_forearm]
64 322.776428 -0.000060 0.000030 0.208361 0.027380 -98.622307 322.776428
65 322.776428 -0.000060 0.000030 0.208566 0.025773 -97.738831 322.776428
[R_front_hand]
64 238.847015 -0.006795 2.210259 -8.879457 -10.642941 -26.315098 238.857239
65 238.847015 -0.006795 2.210259 -8.879457 -10.642941 -26.315098 238.857239
[R_weapon_bone]
64 155.664093 0.002503 -0.000030 0.003487 0.001180 -90.988930 155.664078
65 155.664093 0.002503 -0.000030 0.003487 0.001180 -90.988930 155.664078
[R_front_hand01_01]
64 87.624611 14.231146 22.918642 -154.633499 -59.950619 61.746044 91.683487
65 87.624611 14.231146 22.918642 -154.633499 -59.950619 61.746044 91.683487
[R_front_hand02_01]
64 89.356956 14.367283 -19.491137 154.602661 58.302849 63.744389 92.579636
65 89.356956 14.367283 -19.491137 154.602661 58.302849 63.744389 92.579636
[R_front_hand03_01]
64 87.286232 -22.307278 -0.143439 0.162155 -0.423168 -75.767921 90.091743
65 87.286232 -22.307278 -0.143439 0.162155 -0.423168 -75.767921 90.091743
[R_front_hand01_02]
64 71.020905 0.000060 0.000119 0.002323 -0.000334 106.381714 71.020905
65 71.020905 0.000060 0.000119 0.002323 -0.000334 106.381714 71.020905
[R_front_hand02_02]
64 71.020844 -0.000030 -0.000119 0.002323 -0.000334 106.381714 71.020836
65 71.020844 -0.000030 -0.000119 0.002323 -0.000334 106.381714 71.020836
[R_front_hand03_02]
64 71.020905 0.000000 0.000030 0.002323 -0.000334 106.381714 71.020905
65 71.020905 0.000000 0.000030 0.002323 -0.000334 106.381714 71.020905
[null_rope01_connect]
64 328.732483 0.000000 -0.000238 -131.158691 -49.213680 -175.307068 328.732483
65 328.732483 0.000000 -0.000238 -130.790512 -48.900463 -174.933182 328.732483
[Rope1_Seg01]
64 -0.000021 0.000005 0.000019 113.355995 8.436911 -170.106979 0.000029
65 -0.000021 0.000004 0.000017 113.150253 8.674779 -168.251465 0.000027
[Rope1_Seg02]
64 139.999863 -0.000179 0.000000 13.935099 -22.674952 -5.879390 139.999863
65 139.999863 -0.000179 0.000000 15.175926 -25.724705 -5.406324 139.999863
[Rope1_Seg03]
64 139.999924 0.000060 -0.000060 4.096535 -18.134838 1.432534 139.999924
65 139.999924 0.000060 -0.000060 3.195218 -19.905460 3.359730 139.999924
[Rope1_Seg04]
64 139.999924 -0.000060 -0.000119 1.477971 -12.921443 -0.290140 139.999924
65 139.999924 -0.000060 -0.000119 0.762273 -12.676153 0.096151 139.999924
[Rope1_Seg05]
64 139.999832 0.000119 -0.000060 0.737812 -14.920207 -4.285814 139.999832
65 139.999832 0.000119 -0.000060 0.021871 -14.196789 -5.006476 139.999832
[Rope1_Seg06]
64 139.999954 0.000119 -0.000060 -0.710487 -11.584234 -3.028668 139.999954
65 139.999954 0.000119 -0.000060 -1.145502 -11.662391 -3.914208 139.999954
[Rope1_Seg07]
64 139.999985 0.000060 0.000000 -1.041094 -7.305367 -1.755757 139.999985
65 139.999985 0.000060 0.000000 -1.336593 -7.530732 -2.339355 139.999985
[Rope1_Seg09]
64 121.602913 0.000119 -0.000089 -89.793175 -1.359789 0.847147 121.602913
65 121.602913 0.000119 -0.000089 -89.793175 -1.359789 0.847147 121.602913
[L_mid_hand01]
64 103.859421 1.038730 8.195221 130.544373 -67.584534 -38.866943 104.187431
65 103.859421 1.038730 8.195221 130.544373 -67.584534 -38.866943 104.187431
[L_mid_hand02]
64 105.572853 -4.139662 -10.864139 -168.923172 43.409309 -73.498886 106.211075
65 105.572853 -4.139662 -10.864139 -168.923172 43.409321 -73.498909 106.211075
[L_mid_hand03]
64 104.641464 17.579376 -3.913581 -6.012626 17.808172 74.893661 106.179977
65 104.641464 17.579376 -3.913581 -6.012627 17.808174 74.893669 106.179977
[null_rope02_connect]
64 328.732849 0.000179 -0.000119 -100.712761 61.604053 17.041231 328.732849
65 328.732849 0.000179 -0.000119 -99.380699 61.745880 17.821157 328.732849
[Rope2_Seg01]
64 0.000072 0.000019 0.000000 -80.025284 19.153776 -41.246807 0.000074
65 0.000072 0.000017 0.000000 6.066130 17.894661 -42.247002 0.000074
[Rope2_Seg02]
64 139.999741 -0.000060 -0.000119 -5.629699 -24.322884 13.374945 139.999756
65 139.999741 -0.000060 -0.000119 -82.482971 10.014225 27.106485 139.999756
[Rope2_Seg03]
64 140.000107 0.000030 0.000000 0.453821 -27.727392 9.641435 140.000107
65 140.000107 0.000030 0.000000 0.335278 -27.601835 9.729748 140.000107
[Rope2_Seg04]
64 139.999802 0.000000 -0.000060 -2.570843 -14.041059 10.099415 139.999802
65 139.999802 0.000000 -0.000060 -3.177434 -12.668037 10.997701 139.999802
[Rope2_Seg05]
64 139.999985 -0.000060 0.000119 -2.019339 -4.132383 11.054877 139.999985
65 139.999985 -0.000060 0.000119 -2.476398 -3.131611 12.490166 139.999985
[Rope2_Seg06]
64 139.999893 -0.000030 -0.000119 -0.496202 -2.845451 5.879059 139.999893
65 139.999893 -0.000030 -0.000119 -0.642605 -2.458874 6.464681 139.999893
[Rope2_Seg07]
64 139.999893 0.000060 -0.000060 -0.109469 -2.058562 3.154945 139.999893
65 139.999893 0.000060 -0.000060 -0.162339 -1.829206 3.452363 139.999893
[Rope2_Seg09]
64 121.338966 0.000089 -0.000060 33.793236 -1.359788 -0.847141 121.338966
65 121.338966 0.000089 -0.000060 33.793236 -1.359788 -0.847141 121.338966
[R_mid_hand01]
64 104.680779 11.144459 -10.335981 -16.212063 45.237247 70.462852 105.778534
65 104.680779 11.144459 -10.335981 -16.212063 45.237247 70.462852 105.778534
[R_mid_hand02]
64 104.070427 2.443552 8.231699 49.067368 -67.749771 39.286453 104.424065
65 104.070427 2.443552 8.231699 49.067371 -67.749794 39.286461 104.424065
[R_mid_hand03]
64 106.028137 -11.221827 -5.996406 -177.101105 15.551026 -76.585571 106.788818
65 106.028137 -11.221827 -5.996406 -177.101105 15.551026 -76.585571 106.788818
[spine02]
64 129.756927 0.001550 0.000119 -1.023899 -3.926965 6.770993 129.756927
65 129.756927 0.001550 0.000119 -1.023899 -3.926965 6.770993 129.756927
[spine03]
64 78.613846 0.087372 -4.898873 1.040681 4.146420 4.212376 78.766380
65 78.613846 0.087372 -4.898873 1.040681 4.146420 4.212376 78.766380
[pelvis]
64 169.435242 0.051022 0.000000 0.019518 -0.190233 -10.721436 169.435257
65 169.435242 0.051022 0.000000 0.019518 -0.190233 -10.721436 169.435257
[null_rope03_connect]
64 -1.257226 -2.466202 137.391083 -152.630722 -85.093597 -101.330681 137.418976
65 -1.257226 -2.466202 137.391083 -153.241730 -84.709572 -100.067749 137.418976
[null_rope04_connect]
64 -1.259640 -2.480268 -137.844437 -152.630722 -85.093597 -101.330681 137.872513
65 -1.259640 -2.480268 -137.844437 -153.241730 -84.709572 -100.067749 137.872513
[Rope3_Seg01]
64 -0.000020 0.000257 -0.000134 -138.219513 -20.794252 -56.084724 0.000291
65 -0.000020 0.000263 -0.000136 -138.740784 -22.214333 -56.568417 0.000296
[Rope3_Seg02]
64 139.999924 -0.000119 0.000060 -3.438683 -11.230375 -28.629824 139.999924
65 139.999924 -0.000119 0.000060 -2.717888 -11.895297 -28.820557 139.999924
[Rope3_Seg03]
64 139.999924 -0.000119 0.000119 -95.900772 -7.417450 -39.490795 139.999924
65 139.999924 -0.000119 0.000119 -103.461403 -9.066888 -40.100868 139.999924
[Rope3_Seg04]
64 139.999924 0.000119 0.000000 -44.508892 24.035051 -5.332744 139.999924
65 139.999924 0.000119 0.000000 -38.058548 22.624008 -1.613203 139.999924
[Rope3_Seg05]
64 139.999924 -0.000238 0.000060 -11.007716 30.788303 13.447785 139.999924
65 139.999924 -0.000238 0.000060 -10.188437 29.043871 14.075614 139.999924
[Rope3_Seg06]
64 139.999893 -0.000119 -0.000060 -0.288069 13.759927 10.587930 139.999893
65 139.999893 -0.000119 -0.000060 -0.091653 15.531402 12.447494 139.999893
[Rope3_Seg07]
64 139.999771 0.000060 -0.000119 0.473327 5.884680 4.930238 139.999771
65 139.999771 0.000060 -0.000119 0.574669 6.463581 5.663721 139.999771
[Rope3_Seg08]
64 139.999985 -0.000060 0.000000 0.564778 3.071450 2.545199 139.999985
65 139.999985 -0.000060 0.000000 0.615536 3.340910 2.889678 139.999985
[Rope3_Seg09]
64 90.185997 -0.000179 -0.000060 89.793228 -1.359877 -0.847183 90.185997
65 90.185997 -0.000179 -0.000060 89.793228 -1.359877 -0.847183 90.185997
[R_rear_hand01]
64 103.366196 -6.073594 -10.757982 -177.714203 24.565960 -73.910950 104.101845
65 103.366196 -6.073594 -10.757982 -177.714203 24.565960 -73.910950 104.101845
[R_rear_hand02]
64 100.509819 12.039542 -7.992327 -12.874829 36.868488 72.167213 101.543350
65 100.509819 12.039542 -7.992327 -12.874829 36.868488 72.167213 101.543350
[R_rear_hand03]
64 101.539970 5.215704 5.435467 71.484581 -71.816628 21.513813 101.819031
65 101.539970 5.215704 5.435467 71.484581 -71.816628 21.513813 101.819031
[Rope4_Seg01]
64 0.000000 0.000000 0.000000 89.548790 -51.813370 -146.012939 0.000000
65 0.000000 0.000000 0.000000 90.141060 -52.336685 -146.223923 0.000000
[Rope4_Seg02]
64 139.999985 0.000060 0.000119 23.905424 -24.438555 16.938208 139.999985
65 139.999985 0.000060 0.000119 24.066538 -24.636902 17.430855 139.999985
[Rope4_Seg03]
64 139.999924 0.000000 -0.000238 23.803904 -11.850466 23.964817 139.999924
65 139.999924 0.000000 -0.000238 23.435242 -11.429892 24.446001 139.999924
[Rope4_Seg04]
64 139.999985 0.000000 0.000119 17.297836 -3.180964 30.194843 139.999985
65 139.999985 0.000000 0.000119 16.380581 -3.164865 28.840506 139.999985
[Rope4_Seg05]
64 139.999802 -0.000060 -0.000119 8.568939 5.261252 32.194809 139.999802
65 139.999802 -0.000060 -0.000119 8.682257 4.267047 32.115154 139.999802
[Rope4_Seg06]
64 139.999924 0.000000 0.000060 0.509704 3.386796 10.764485 139.999924
65 139.999924 0.000000 0.000060 0.658047 3.276920 11.265077 139.999924
[Rope4_Seg07]
64 139.999802 0.000000 0.000000 -0.169106 1.787529 5.555891 139.999802
65 139.999802 0.000000 0.000000 -0.128265 1.741406 5.784356 139.999802
[Rope4_Seg08]
64 139.999924 0.000000 0.000119 -1.764671 0.948256 2.989893 139.999924
65 139.999924 0.000000 0.000119 -1.749479 0.925037 3.114066 139.999924
[Rope4_Seg09]
64 90.185791 0.000060 0.000060 -135.617828 2.228885 0.850567 90.185791
65 90.185791 0.000060 0.000060 -135.617828 2.228885 0.850567 90.185791
[L_rear_hand01]
64 101.696655 -8.392275 -7.654577 -12.874829 -36.868488 107.832764 102.329041
65 101.696655 -8.392275 -7.654577 -12.874829 -36.868488 107.832764 102.329041
[L_rear_hand02]
64 102.726799 -1.568258 5.773216 71.484581 71.816628 158.486160 102.900848
65 102.726799 -1.568258 5.773216 71.484581 71.816628 158.486160 102.900848
[L_rear_hand03]
64 104.552910 9.721220 -10.420293 -177.714203 -24.565960 -106.089035 105.519653
65 104.552910 9.721220 -10.420293 -177.714203 -24.565960 -106.089035 105.519653
